<?xml version="1.0" encoding="UTF-8"?>
<svg id="objects" xmlns="http://www.w3.org/2000/svg" viewBox="0 0 1358 337.06">
  <defs>
    <style>
      .cls-1 {
        fill: #d3d3d3;
      }

      .cls-1, .cls-2, .cls-3, .cls-4, .cls-5, .cls-6, .cls-7 {
        stroke-width: 0px;
      }

      .cls-8 {
        font-family: Lato-Black, Lato;
        font-size: 323.25px;
        font-weight: 800;
      }

      .cls-8, .cls-4 {
        fill: #666;
      }

      .cls-2 {
        fill: #565656;
      }

      .cls-3 {
        fill: #cecece;
      }

      .cls-5 {
        fill: #bcbcbc;
      }

      .cls-9 {
        letter-spacing: -.03em;
      }

      .cls-6 {
        fill: #efefef;
      }

      .cls-7 {
        fill: #a1a1a1;
      }
    </style>
  </defs>
  <g>
    <path class="cls-1" d="M190.38,144.9h-29.29v-50.38c0-31.33-25.49-56.82-56.82-56.82s-56.82,25.49-56.82,56.82v50.38h-29.29v-50.38C18.16,47.05,56.79,8.42,104.27,8.42s86.11,38.63,86.11,86.11v50.38Z"/>
    <path class="cls-5" d="M190.38,94.53v50.38h-29.29v-13.47c11.72-4.69,16.4-14.06,16.4-26.95v-9.96c0-45.32-35.18-82.57-79.67-85.87.47-.04.95-.06,1.43-.09.09,0,.19-.01.28-.02.33-.02.67-.04,1.01-.05.13,0,.27-.01.4-.02.19,0,.38-.02.57-.02.37-.02.75-.02,1.12-.03.54-.01,1.08-.02,1.62-.02,47.48,0,86.11,38.63,86.11,86.11Z"/>
    <rect class="cls-7" y="134.36" width="208.54" height="170.46" rx="20" ry="20"/>
    <path class="cls-4" d="M125.33,246.46c.94,5.89-3.61,11.21-9.57,11.21h-22.99c-5.96,0-10.5-5.32-9.57-11.21l3.27-20.51c-4.92-4.7-7.98-11.32-7.98-18.65,0-14.23,11.54-25.77,25.77-25.77s25.77,11.54,25.77,25.77c0,7.33-3.06,13.95-7.98,18.65l3.27,20.51Z"/>
    <path class="cls-4" d="M208.54,146.08v147.03c0,6.47-5.24,11.72-11.72,11.72H46.86c60.92,0,125.94-9.96,125.94-80.25v-59.75c0-16.82-13.64-30.46-30.46-30.46h54.48c6.47,0,11.72,5.24,11.72,11.72Z"/>
    <path class="cls-3" d="M9.96,148.76v78.16s25.78-63.5,79.25-82.6H14.4c-2.45,0-4.44,1.99-4.44,4.44Z"/>
    <path class="cls-2" d="M82.01,208.76c0,7.33,3.06,13.95,7.98,18.65l-3.27,20.51c-.62,3.89,1.16,7.54,4.15,9.56-4.99-.98-8.5-5.78-7.67-11.02l3.27-20.51c-4.92-4.7-7.98-11.32-7.98-18.65,0-14.23,11.54-25.77,25.77-25.77,4.19,0,8.15,1,11.65,2.78-2.55-.86-5.29-1.31-8.13-1.31-14.23,0-25.77,11.54-25.77,25.77Z"/>
    <path class="cls-6" d="M86.7,14.86S27.53,26.26,22.85,90.43h11.13s2.34-50.98,52.72-75.57Z"/>
  </g>
  <text class="cls-8" transform="translate(311 279.37)"><tspan x="0" y="0">SA</tspan><tspan class="cls-9" x="413.43" y="0">R</tspan><tspan x="618.7" y="0">TU</tspan></text>
</svg>