<?xml version="1.0" encoding="UTF-8"?>
<svg id="Capa_1" data-name="Capa 1" xmlns="http://www.w3.org/2000/svg" viewBox="0 0 641.97 266.33">
  <defs>
    <style>
      .cls-1 {
        fill: #000;
        stroke-width: 0px;
      }
    </style>
  </defs>
  <path class="cls-1" d="M455.34,72.79c1.16-.12,2.13-.3,3.1-.3,30.32.18,60.64.18,90.96.66,14.3.23,28.09,3.14,40.62,10.64,24.54,14.69,31.09,53.05,12.76,74.86-5.97,7.1-13.84,11.21-23,14.2,2.44,4.15,4.58,7.84,6.77,11.51,9.87,16.6,19.83,33.16,29.57,49.84,1.65,2.82,3.41,3.95,6.7,3.8,6.28-.28,12.58-.08,19.16-.08v27.76c-15.39.24-30.77.96-46.11.52-8.13-.24-13.25-6.28-17.09-13.13-12.94-23.1-25.98-46.14-38.78-69.31-1.78-3.22-3.73-4.53-7.39-4.32-5.47.3-10.96.08-17.07.08v42.33h-42.46v-119.75h-17.74v-29.3ZM515.81,101.71v49.16c11.15,0,22.02.92,32.67-.23,13.8-1.49,22.29-12.31,22.1-25.81-.2-13.82-6.9-21.39-22.37-22.91-10.52-1.04-21.23-.2-32.4-.2Z"/>
  <path class="cls-1" d="M156.33,192.25h18.58v26.83c-10.49.92-21.02,1.93-31.56,2.71-3.64.27-7.34.16-10.98-.19-7.87-.74-14.71-3.29-17.54-11.98-5.12,2.84-9.75,5.71-14.63,8.05-16.26,7.82-33.09,9.64-50.52,4.36-18.55-5.62-28.98-18.13-30.05-37.35-.94-16.95-.61-33.98-.75-50.97-.09-10.47-.02-20.94-.02-32.1H0v-27.21c8.61-.75,17.19-1.85,25.79-2.14,7.29-.25,14.66-.04,21.89.82,7.26.86,11.46,5.76,12.74,12.88.61,3.42.92,6.94.93,10.42.08,23.83,0,47.67.06,71.5.03,14.34,4.51,19.64,18.88,20.02,10.09.26,20.23-1.17,30.32-2.15,1.16-.11,3.05-2.21,3.06-3.4.18-26.65.13-53.3.13-80.56h-18.76c0-8.85-.09-17.11.14-25.36.02-.8,2-2.15,3.14-2.23,12.29-.87,24.59-2.14,36.89-2.11,14.98.05,20.68,6.11,21.01,21.26.31,13.99.1,28,.11,42,0,18.65,0,37.31,0,56.9Z"/>
  <path class="cls-1" d="M340.65,192.25h18.28v26.56c-15.19,1.69-30.12,4.57-45.33,2.27-9.03-1.37-13.13-5.44-14.66-14.49-.52-3.1-.59-6.3-.59-9.45-.05-23.65.04-47.31-.1-70.96-.02-3.6-.67-7.28-1.62-10.77-1.22-4.52-4.55-7.38-9.06-8.45-13.44-3.2-26.82-1.96-40.06,1.21-1.02.24-2.12,2.68-2.15,4.12-.19,9.82-.1,19.65-.1,29.48,0,25.98,0,51.96,0,78.42h-42.46v-118.73h-20.98v-26.67c16.63-1.7,33.06-4.57,49.72-1.76,6.17,1.04,10.44,4.85,13.13,11.05,11.36-8.6,24.07-13.17,37.82-14.49,6.92-.66,14.08-1.09,20.9-.09,22.68,3.32,36.54,20.09,37.04,44.98.48,23.81.17,47.64.21,71.46,0,1.81,0,3.62,0,6.31Z"/>
  <path class="cls-1" d="M429.83,221.87h-42.23v-120.16h-19.88v-27.73c14.98-.58,29.9-1.9,44.78-1.5,11.37.3,16.08,6.15,17.16,17.56.24,2.48.37,4.99.37,7.48.02,39.8.02,79.6,0,119.4,0,1.48-.12,2.96-.21,4.95Z"/>
  <path class="cls-1" d="M423.52,22.37c-.24,2.64-.39,5.3-.74,7.93-.88,6.7-4.74,11.46-11.24,12.31-6.96.91-14.23.88-21.2,0-6.33-.8-10.16-5.51-10.92-11.98-.5-4.27-.74-8.63-.49-12.91.62-10.56,4.79-15.43,15.25-17.15,4.51-.74,9.36-.76,13.85.04,11.65,2.09,15.33,7.66,15.48,21.76Z"/>
</svg>